# xmcd
#
# Track frame offsets: 
#        150
#        19815
#        40383
#        84940
#        106740
#        135368
#        168313
#        198325
#        221133
#        241270
#        270915
#
# Disc length: 3945 seconds
#
# Revision: 4
# Processed by: cddbd v1.5.2PL0 Copyright (c) Steve Scherf et al.
# Submitted via: ExactAudioCopyFreeDBPlugin 1.0
#
DISCID=870f670b
DTITLE=Junior Kimbrough - Sad Days Lonely Nights
DYEAR=1997
DGENRE=Blues
TTITLE0=Sad Days Lonely Nights
TTITLE1=Lonesome in My Home
TTITLE2=Lord, Have Mercy on Me
TTITLE3=Crawling King Snake
TTITLE4=My Mind is Rambling
TTITLE5=Leaving in the Morning
TTITLE6=Old Black Mattie
TTITLE7=I'm in Love
TTITLE8=Pull Your Clothes Off
TTITLE9=I'm Gonna Have to Leave Here
TTITLE10=Sad Days Lonely Nights (reprise)
EXTD=YEAR: 1997
EXTT0=
EXTT1=
EXTT2=
EXTT3=
EXTT4=
EXTT5=
EXTT6=
EXTT7=
EXTT8=
EXTT9=
EXTT10=
PLAYORDER=
